{"title":"Fast.And.Furious.6.2013.CAM.V2.XViD-FANTA","uid":8493953,"size":2166824529,"categoryP":"video","categoryS":"movies","magnet":"?xt=urn:btih:0e468f63429d35a9fa375171cc6272d3841f0c7b&amp;dn=Fast.And.Furious.6.2013.CAM.V2.XViD-FANTA&amp;tr=udp%3A%2F%2Ftracker.openbittorrent.com%3A80&amp;tr=udp%3A%2F%2Fopen.demonii.com%3A1337&amp;tr=udp%3A%2F%2Ftracker.coppersurfer.tk%3A6969&amp;tr=udp%3A%2F%2Fexodus.desync.com%3A6969","seeders":5,"leechers":0,"uploader":"xxxlavalxxx","files":4,"time":1369080293,"description":"\n &lt;a href=&quot;\nhttp://www.imdb.com/title/tt1905041/&quot; rel=&quot;nofollow&quot; target=&quot;_NEW&quot;&gt;\nhttp://www.imdb.com/title/tt1905041/&lt;/a&gt;\n\n\n\nPlot: Agent Luke Hobbs enlists Dominic Toretto and his team to bring down former Special Ops soldier Owen Shaw, leader of a unit specializing in vehicular warfare. \n\n\n\nDirector:\n Justin Lin \n\nWriters:\n Chris Morgan (screenplay), Gary Scott Thompson (characters) \n\nStars:\n Dwayne Johnson, Vin Diesel, Paul Walker\n\nGenres:\n  Action |  Crime |  Thriller \n\nCountry:\n USA \n\nLanguage:\n English \n\n\n\n\n\nFormat                                   : AVI\nFormat/Info                              : Audio Video Interleave\nFile size                                : 1.97 GiB\nDuration                                 : 2h 0mn\nOverall bit rate                         : 2 332 Kbps\nWriting application                      : VirtualDubMod 1.5.10.2 (build 2542/release)\nWriting library                          : VirtualDub build 32842/release\n\nVideo\nID                                       : 0\nFormat                                   : MPEG-4 Visual\nFormat profile                           : Advanced Simple@L5\nFormat settings, BVOP                    : 1\nFormat settings, QPel                    : No\nFormat settings, GMC                     : No warppoints\nFormat settings, Matrix                  : Default (H.263)\nMuxing mode                              : Packed bitstream\nCodec ID                                 : XVID\nCodec ID/Hint                            : XviD\nDuration                                 : 2h 0mn\nBit rate                                 : 2 120 Kbps\nWidth                                    : 680 pixels\nHeight                                   : 284 pixels\nDisplay aspect ratio                     : 2.40:1\nFrame rate                               : 50.000 fps\nColor space                              : YUV\nChroma subsampling                       : 4:2:0\nBit depth                                : 8 bits\nScan type                                : Progressive\nCompression mode                         : Lossy\nBits/(Pixel*Frame)                       : 0.220\nStream size                              : 1.79 GiB (91%)\nWriting library                          : XviD 64\n\nAudio\nID                                       : 1\nFormat                                   : AC-3\nFormat/Info                              : Audio Coding 3\nMode extension                           : CM (complete main)\nFormat settings, Endianness              : Big\nCodec ID                                 : 2000\nDuration                                 : 2h 0mn\nBit rate mode                            : Constant\nBit rate                                 : 192 Kbps\nChannel(s)                               : 2 channels\nChannel positions                        : Front: L R\nSampling rate                            : 48.0 KHz\nBit depth                                : 16 bits\nCompression mode                         : Lossy\nStream size                              : 166 MiB (8%)\nAlignment                                : Split accross interleaves\nInterleave, duration                     : 20 ms (1.00 video frame)\nInterleave, preload duration             : 500 ms\n\n\n\ninfo\n\n &lt;a href=&quot;\nhttp://addpix.net/viewer.php?file=59845021801725213744.png&quot; rel=&quot;nofollow&quot; target=&quot;_NEW&quot;&gt;\nhttp://addpix.net/viewer.php?file=59845021801725213744.png&lt;/a&gt;\n\n\n\nscreens\n\n\n\n\n    &lt;a href=&quot;\thttp://addpix.net/viewer.php?file=13285372921922905196.jpg&quot; rel=&quot;nofollow&quot; target=&quot;_NEW&quot;&gt;\thttp://addpix.net/viewer.php?file=13285372921922905196.jpg&lt;/a&gt;\n    &lt;a href=&quot;\thttp://addpix.net/viewer.php?file=22688859564791675524.jpg&quot; rel=&quot;nofollow&quot; target=&quot;_NEW&quot;&gt;\thttp://addpix.net/viewer.php?file=22688859564791675524.jpg&lt;/a&gt;\n    &lt;a href=&quot;\thttp://addpix.net/viewer.php?file=09211734454741512027.jpg&quot; rel=&quot;nofollow&quot; target=&quot;_NEW&quot;&gt;\thttp://addpix.net/viewer.php?file=09211734454741512027.jpg&lt;/a&gt;\n    &lt;a href=&quot;\thttp://addpix.net/viewer.php?file=44760186168952294297.jpg&quot; rel=&quot;nofollow&quot; target=&quot;_NEW&quot;&gt;\thttp://addpix.net/viewer.php?file=44760186168952294297.jpg&lt;/a&gt;\n    &lt;a href=&quot;\thttp://addpix.net/viewer.php?file=48656450003748058079.jpg&quot; rel=&quot;nofollow&quot; target=&quot;_NEW&quot;&gt;\thttp://addpix.net/viewer.php?file=48656450003748058079.jpg&lt;/a&gt;\n    &lt;a href=&quot;\thttp://addpix.net/viewer.php?file=32363993450968665089.jpg&quot; rel=&quot;nofollow&quot; target=&quot;_NEW&quot;&gt;\thttp://addpix.net/viewer.php?file=32363993450968665089.jpg&lt;/a&gt;","torrent":{"xt":"urn:btih:0e468f63429d35a9fa375171cc6272d3841f0c7b","amp;dn":"Fast.And.Furious.6.2013.CAM.V2.XViD-FANTA","amp;tr":["udp%3A%2F%2Ftracker.openbittorrent.com%3A80","udp%3A%2F%2Fopen.demonii.com%3A1337","udp%3A%2F%2Ftracker.coppersurfer.tk%3A6969","udp%3A%2F%2Fexodus.desync.com%3A6969"],"infoHash":"0e468f63429d35a9fa375171cc6272d3841f0c7b","infoHashBuffer":{"type":"Buffer","data":[14,70,143,99,66,157,53,169,250,55,81,113,204,98,114,211,132,31,12,123]},"announce":[],"urlList":[]}}